<svg width="180" height="40" viewBox="0 0 180 40" fill="none" xmlns="http://www.w3.org/2000/svg">
<path d="M7 19.2997C7 17.7997 7.4 16.2998 8.4 15.0998H0.5C2.5 26.6998 9.7 33.5997 14 33.5997C15.2 33.5997 16.7 32.9998 18.2 31.8997V24.8997C17 25.7997 15.5 26.2997 14 26.2997C10.1 26.2997 7 23.0997 7 19.2997ZM0 8.89975C0 10.0998 0.0999998 11.1998 0.2 12.2998H15.4V15.0998H15.2C11.7 15.0998 9.8 16.5997 9.8 19.2997C9.8 21.5997 11.7 23.4998 14 23.4998C16.7 23.4998 18.2 21.5998 18.2 18.0998V6.69975C12.1 5.99975 6.2 6.79975 0 8.89975ZM21 29.2997C23.8 26.0997 26.4 21.2998 27.5 15.0998H21V29.2997ZM21 7.09975V12.1998H27.8C27.9 11.1998 28 9.99975 28 8.89975C25.6 8.09975 23.3 7.49975 21 7.09975Z" fill="#007AFF"/>
<path d="M120.5 8.80029H122.9V13.2003H125.5V15.5003H122.9V19.6003C122.9 21.9003 123.8 23.0003 125.5 23.1003V25.4003C122.6 25.3003 120.5 23.5003 120.5 19.6003V8.80029Z" fill="black"/>
<path d="M133.5 13.0002C136.7 13.0002 139.7 15.3002 139.8 19.1002C139.8 19.5002 139.8 19.9002 139.7 20.2002H129.8C130 22.0002 131.5 23.3002 133.4 23.3002C134.6 23.3002 135.5 22.9002 136.1 22.3002L138.4 23.3002C137.2 24.7002 135.4 25.6002 133.5 25.6002C130 25.6002 127.2 22.8002 127.2 19.3002C127.3 15.9002 130 13.0002 133.5 13.0002ZM137.3 18.2002C136.9 16.5002 135.4 15.3002 133.6 15.3002C131.7 15.3002 130.3 16.5002 129.9 18.2002H137.3Z" fill="black"/>
<path d="M141.7 21.7002H144C144 22.8002 145.1 23.4002 146.5 23.4002C148 23.4002 148.8 22.7002 148.8 21.8002C148.8 19.0002 141.8 21.1002 141.8 16.4002C141.8 14.3002 143.8 13.0002 146.3 13.0002C148.8 13.0002 150.8 14.3002 150.8 16.7002H148.5C148.5 15.7002 147.5 15.2002 146.3 15.2002C145.1 15.2002 144.2 15.8002 144.2 16.7002C144.2 19.1002 151.1 17.3002 151.2 22.0002C151.2 24.5002 149.1 25.7002 146.4 25.7002C144 25.6002 141.7 24.2002 141.7 21.7002Z" fill="black"/>
<path d="M153.4 8.80029H155.8V13.2003H158.4V15.5003H155.8V19.6003C155.8 21.9003 156.7 23.0003 158.4 23.1003V25.4003C155.5 25.3003 153.4 23.5003 153.4 19.6003V8.80029Z" fill="black"/>
<path d="M160.3 21.7002H162.6C162.6 22.8002 163.7 23.4002 165.1 23.4002C166.6 23.4002 167.4 22.7002 167.4 21.8002C167.4 19.0002 160.4 21.1002 160.4 16.4002C160.4 14.3002 162.4 13.0002 164.9 13.0002C167.4 13.0002 169.4 14.3002 169.4 16.7002H167.1C167.1 15.7002 166.1 15.2002 164.9 15.2002C163.7 15.2002 162.8 15.8002 162.8 16.7002C162.8 19.1002 169.7 17.3002 169.8 22.0002C169.8 24.5002 167.7 25.7002 165 25.7002C162.6 25.6002 160.3 24.2002 160.3 21.7002Z" fill="black"/>
<path d="M45.9998 25.5002C42.5998 25.5002 39.7998 22.7002 39.7998 19.3002C39.7998 16.3002 41.6998 13.1002 47.0998 13.1002H48.6998V15.4002H47.0998C43.8998 15.4002 42.0998 16.8002 42.0998 19.3002C42.0998 21.4002 43.7998 23.2002 45.9998 23.2002C48.4998 23.2002 49.8998 21.4002 49.8998 18.2002V8.2002H52.1998V18.2002C52.1998 23.6002 48.9998 25.5002 45.9998 25.5002Z" fill="black"/>
<path d="M54.6997 18.9001C54.6997 14.8001 56.5997 13.1001 60.2997 13.1001H61.4997V15.4001H60.2997C57.6997 15.4001 57.0997 16.4001 57.0997 18.9001V25.3001H54.6997V18.9001Z" fill="black"/>
<path d="M81.9999 9.90015C81.9999 9.10015 82.5999 8.40015 83.4999 8.40015C84.2999 8.40015 84.8999 9.00015 84.8999 9.90015C84.8999 10.7001 84.2999 11.4001 83.4999 11.4001C82.6999 11.4001 81.9999 10.8001 81.9999 9.90015ZM63.6999 13.1001H66.0999V25.3001H63.6999V13.1001ZM63.3999 9.90015C63.3999 9.10015 63.9999 8.40015 64.8999 8.40015C65.6999 8.40015 66.2999 9.00015 66.2999 9.90015C66.2999 10.7001 65.6999 11.4001 64.8999 11.4001C64.0999 11.4001 63.3999 10.8001 63.3999 9.90015Z" fill="black"/>
<path d="M78.3998 11.8003L74.1998 22.2003L70.4998 12.9003L68.2998 13.7003L72.9998 25.3003H75.3998L80.5998 12.8003L78.3998 11.8003Z" fill="black"/>
<path d="M82.2998 13.1001H84.6998V25.3001H82.2998V13.1001Z" fill="black"/>
<path d="M98.3996 25.3001H95.9996V18.9001C95.9996 16.4001 94.8996 15.2001 92.9996 15.2001C91.0996 15.2001 89.9996 16.4001 89.9996 18.9001V25.3001H87.5996V18.9001C87.5996 14.8001 89.7996 12.9001 92.9996 12.9001C96.0996 12.9001 98.3996 14.8001 98.3996 18.9001V25.3001Z" fill="black"/>
<path d="M113.4 24.7001C113.4 27.8001 111.4 31.1001 105.9 31.1001L104.3 31.2001L104.2 28.8001L105.9 28.7001C109.2 28.7001 111.1 27.3001 111.1 24.7001V20.2001C111.1 16.9001 109.7 15.0001 107.1 15.0001C104.9 15.0001 103.1 16.8001 103.1 19.0001C103.1 21.6001 104.9 23.0001 108.3 23.0001L110 23.1001L109.9 25.5001L108.3 25.4001C102.8 25.4001 100.8 22.1001 100.8 19.0001C100.8 15.5001 103.7 12.6001 107.2 12.6001C110.3 12.6001 113.6 14.6001 113.6 20.2001V24.7001H113.4Z" fill="black"/>
</svg>
