<svg width="90" height="87" viewBox="0 0 90 87" fill="none" xmlns="http://www.w3.org/2000/svg">
<g clip-path="url(#clip0_3159_11082)">
<g clip-path="url(#clip1_3159_11082)">
<path d="M43 62.5C31.4 62.5 22 53.1 22 41.5C22 36.1 23.8 30.5 28.3 26.5H1.5C7.6 64.4 31.2 87 45 87C48.8 87 53.3 85.3 58 82V56.1C53.9 60.7 48.4 62.5 43 62.5ZM0 7.7C0 12.1 0.200001 16.4 0.700001 20.5H55V26.5H47C34.9 26.5 28 32 28 41.5C28 49.8 34.7 56.5 43 56.5C52.5 56.5 58 49.6 58 37.5V0.699997C38.5 -1.3 19.9 0.999997 0 7.7ZM64 77.1C74.5 67 84.8 49.6 88.5 26.5H64V77.1ZM64 1.5V20.5H89.3C89.7 16.4 90 12.1 90 7.7C81 4.8 72.4 2.7 64 1.5Z" fill="#1A69FF"/>
</g>
</g>
<defs>
<clipPath id="clip0_3159_11082">
<rect width="90" height="87" fill="white"/>
</clipPath>
<clipPath id="clip1_3159_11082">
<rect width="90" height="87" fill="white" transform="matrix(1 0 0 -1 0 87)"/>
</clipPath>
</defs>
</svg>
